<mxfile host="app.diagrams.net" modified="2023-04-23T22:45:07.397Z" agent="Mozilla/5.0 (Windows NT 10.0; Win64; x64; rv:109.0) Gecko/20100101 Firefox/112.0" etag="lq7432QbNPFtF54adTF8" version="21.2.1" type="device">
  <diagram name="Page-1" id="fJdCY71DUkVmfcTO9paO">
    <mxGraphModel dx="555" dy="966" grid="1" gridSize="10" guides="1" tooltips="1" connect="1" arrows="1" fold="1" page="1" pageScale="1" pageWidth="827" pageHeight="1169" math="0" shadow="0">
      <root>
        <mxCell id="0" />
        <mxCell id="1" parent="0" />
        <mxCell id="Itt7Gc9mhJLhX_JQ8-sc-17" style="edgeStyle=orthogonalEdgeStyle;rounded=0;orthogonalLoop=1;jettySize=auto;html=1;" edge="1" parent="1" source="Itt7Gc9mhJLhX_JQ8-sc-1" target="Itt7Gc9mhJLhX_JQ8-sc-5">
          <mxGeometry relative="1" as="geometry" />
        </mxCell>
        <mxCell id="Itt7Gc9mhJLhX_JQ8-sc-1" value="MenuManager" style="swimlane;fontStyle=0;childLayout=stackLayout;horizontal=1;startSize=26;fillColor=none;horizontalStack=0;resizeParent=1;resizeParentMax=0;resizeLast=0;collapsible=1;marginBottom=0;whiteSpace=wrap;html=1;" vertex="1" parent="1">
          <mxGeometry x="200" y="350" width="140" height="52" as="geometry" />
        </mxCell>
        <mxCell id="Itt7Gc9mhJLhX_JQ8-sc-5" value="GuiBuilder" style="swimlane;fontStyle=0;childLayout=stackLayout;horizontal=1;startSize=26;fillColor=none;horizontalStack=0;resizeParent=1;resizeParentMax=0;resizeLast=0;collapsible=1;marginBottom=0;whiteSpace=wrap;html=1;" vertex="1" parent="1">
          <mxGeometry x="400" y="350" width="140" height="52" as="geometry" />
        </mxCell>
        <mxCell id="Itt7Gc9mhJLhX_JQ8-sc-6" value="creat_window()" style="text;strokeColor=none;fillColor=none;align=left;verticalAlign=top;spacingLeft=4;spacingRight=4;overflow=hidden;rotatable=0;points=[[0,0.5],[1,0.5]];portConstraint=eastwest;whiteSpace=wrap;html=1;" vertex="1" parent="Itt7Gc9mhJLhX_JQ8-sc-5">
          <mxGeometry y="26" width="140" height="26" as="geometry" />
        </mxCell>
        <mxCell id="Itt7Gc9mhJLhX_JQ8-sc-19" style="edgeStyle=orthogonalEdgeStyle;rounded=0;orthogonalLoop=1;jettySize=auto;html=1;endArrow=block;endFill=0;" edge="1" parent="1" source="Itt7Gc9mhJLhX_JQ8-sc-9" target="Itt7Gc9mhJLhX_JQ8-sc-5">
          <mxGeometry relative="1" as="geometry" />
        </mxCell>
        <mxCell id="Itt7Gc9mhJLhX_JQ8-sc-20" style="edgeStyle=orthogonalEdgeStyle;rounded=0;orthogonalLoop=1;jettySize=auto;html=1;dashed=1;" edge="1" parent="1" source="Itt7Gc9mhJLhX_JQ8-sc-9" target="Itt7Gc9mhJLhX_JQ8-sc-13">
          <mxGeometry relative="1" as="geometry" />
        </mxCell>
        <mxCell id="Itt7Gc9mhJLhX_JQ8-sc-9" value="PygameBuilder" style="swimlane;fontStyle=0;childLayout=stackLayout;horizontal=1;startSize=26;fillColor=none;horizontalStack=0;resizeParent=1;resizeParentMax=0;resizeLast=0;collapsible=1;marginBottom=0;whiteSpace=wrap;html=1;" vertex="1" parent="1">
          <mxGeometry x="400" y="450" width="140" height="52" as="geometry" />
        </mxCell>
        <mxCell id="Itt7Gc9mhJLhX_JQ8-sc-10" value="creat_window()" style="text;strokeColor=none;fillColor=none;align=left;verticalAlign=top;spacingLeft=4;spacingRight=4;overflow=hidden;rotatable=0;points=[[0,0.5],[1,0.5]];portConstraint=eastwest;whiteSpace=wrap;html=1;" vertex="1" parent="Itt7Gc9mhJLhX_JQ8-sc-9">
          <mxGeometry y="26" width="140" height="26" as="geometry" />
        </mxCell>
        <mxCell id="Itt7Gc9mhJLhX_JQ8-sc-13" value="Window" style="swimlane;fontStyle=0;childLayout=stackLayout;horizontal=1;startSize=26;fillColor=none;horizontalStack=0;resizeParent=1;resizeParentMax=0;resizeLast=0;collapsible=1;marginBottom=0;whiteSpace=wrap;html=1;" vertex="1" parent="1">
          <mxGeometry x="590" y="450" width="140" height="52" as="geometry" />
        </mxCell>
      </root>
    </mxGraphModel>
  </diagram>
</mxfile>
